<svg id="Flat" height="512" viewBox="0 0 64 64" width="512" xmlns="http://www.w3.org/2000/svg"><path d="m59 30v4.95a27 27 0 1 1 -54 0v-4.95z" fill="#ffd71e"/><path d="m20.9084 29.44h-5.2723v27.0715a26.86 26.86 0 0 0 10 4.7757v-17.8684z" fill="#ffc314"/><path d="m43.0905 29.44-4.7274 13.9788v17.8686a26.8618 26.8618 0 0 0 10-4.7753v-27.0721z" fill="#ffc314"/><circle cx="32" cy="30" fill="#ffd71e" r="27"/><path d="m50.4148 27.6589q-.0113-.0691-.0235-.1373a4.4077 4.4077 0 0 0 -6.5625-3l-9.9223 5.69-.102-.4446 7.1913-8.6212a4.4078 4.4078 0 0 0 -1.8149-6.9839q-.0651-.0238-.1312-.0469a4.6908 4.6908 0 0 0 -5.4012 1.7826l-.6485.9583-.6485-.9586a4.6909 4.6909 0 0 0 -5.4015-1.7827c-.044.0154-.0878.0311-.1311.047a4.4077 4.4077 0 0 0 -1.815 6.9839l7.278 8.7245-.48.11.0168.0732-9.6473-5.5323a4.4077 4.4077 0 0 0 -6.5625 3q-.0123.0681-.0235.1373a4.6907 4.6907 0 0 0 2.6934 5.01l1.0566.4722-.8314.8051a4.6908 4.6908 0 0 0 -.8176 5.6287q.0342.0611.069.121a4.4077 4.4077 0 0 0 7.1929.5747l7.2163-8.5491a15.5341 15.5341 0 0 1 -9.7086 17.164l-1.0293.3867.7022 1.8721 1.0351-.3877a17.5577 17.5577 0 0 0 11.1115-18.5135l6.7763 8.0276a4.4078 4.4078 0 0 0 7.193-.5747q.0348-.06.069-.121a4.6908 4.6908 0 0 0 -.8176-5.6287l-.8314-.8051 1.0566-.4722a4.6907 4.6907 0 0 0 2.6934-5.0094z" fill="#ffc314"/><path d="m32.9744 28.6514-1.9492.4472a15.54 15.54 0 0 1 -9.5693 17.93l-1.0293.3867.7021 1.8721 1.0352-.3877a17.55 17.55 0 0 0 10.8105-20.2483z" fill="#ffe65a"/><path d="m8 33a26.9925 26.9925 0 0 1 44.5289-20.5275 26.9941 26.9941 0 1 0 -38.0575 38.0553 26.8859 26.8859 0 0 1 -6.4714-17.5278z" fill="#ffc314"/><g fill="#ffe65a"><path d="m32 58a28 28 0 1 1 28-28 28.0314 28.0314 0 0 1 -28 28zm0-54a26 26 0 1 0 26 26 26.0289 26.0289 0 0 0 -26-26z"/><path d="m38.1807 12.3052q-.065-.0238-.1311-.0469a4.6906 4.6906 0 0 0 -5.4012 1.7825l-.6484.9586-.6484-.9585a4.6908 4.6908 0 0 0 -5.4016-1.7827q-.0662.0231-.1311.047a4.4077 4.4077 0 0 0 -1.8149 6.9838l7.996 9.5858 7.9959-9.5858a4.4076 4.4076 0 0 0 -1.8152-6.9838z"/><path d="m14.6085 25.6651q-.0123.0683-.0235.1373a4.691 4.691 0 0 0 2.6934 5.01l1.0567.4722-.8314.8051a4.6907 4.6907 0 0 0 -.8177 5.6286q.0342.0612.069.121a4.4078 4.4078 0 0 0 7.193.5748l8.052-9.5393-10.829-6.2098a4.4077 4.4077 0 0 0 -6.5625 3.0001z"/><path d="m49.3912 25.6651q.0123.0683.0235.1373a4.691 4.691 0 0 1 -2.6934 5.01l-1.0567.4722.8314.8051a4.6907 4.6907 0 0 1 .8177 5.6286q-.0342.0612-.0691.121a4.4077 4.4077 0 0 1 -7.1929.5748l-8.0517-9.5393 10.8289-6.21a4.4077 4.4077 0 0 1 6.5623 3.0003z"/></g><path d="m41.468 29.528-8.468-1.492v-8.598h-2v8.598l-8.468 1.492.347 1.97 9.121-1.607 9.121 1.607z" fill="#ffd71e"/></svg>